<svg id="Layer_1" data-name="Layer 1" xmlns="http://www.w3.org/2000/svg" xmlns:xlink="http://www.w3.org/1999/xlink" viewBox="0 0 477.16 290.5"><defs><style>.cls-1{fill:#fff;}.cls-2{fill:url(#linear-gradient);}.cls-3{fill:url(#linear-gradient-2);}.cls-4{fill:url(#linear-gradient-3);}.cls-5{fill:url(#linear-gradient-4);}.cls-6{fill:url(#linear-gradient-5);}</style><linearGradient id="linear-gradient" x1="97.84" y1="99.53" x2="308.83" y2="310.52" gradientTransform="matrix(1, 0, 0, -1, 0, 347)" gradientUnits="userSpaceOnUse"><stop offset="0.01" stop-color="#04a5e9"/><stop offset="0.98" stop-color="#008ecb"/></linearGradient><linearGradient id="linear-gradient-2" x1="344.01" y1="242.16" x2="376.88" y2="275.03" xlink:href="#linear-gradient"/><linearGradient id="linear-gradient-3" x1="310.07" y1="77.26" x2="328.05" y2="95.25" xlink:href="#linear-gradient"/><linearGradient id="linear-gradient-4" x1="353.02" y1="38.11" x2="541.24" y2="229.97" xlink:href="#linear-gradient"/><linearGradient id="linear-gradient-5" x1="465.48" y1="99.6" x2="476.6" y2="110.72" gradientTransform="matrix(1, 0, 0, 1, 0, 0)" xlink:href="#linear-gradient"/></defs><title>presencCOUNTRY</title><path class="cls-1" d="M153.31,131.32h-6.47l0-4.78h6.43a7.25,7.25,0,0,0,4.06-1.08,6.69,6.69,0,0,0,2.49-3.2,13.51,13.51,0,0,0,.86-5.09v-1.44a14.77,14.77,0,0,0-.49-4,7.9,7.9,0,0,0-1.41-2.91,5.89,5.89,0,0,0-2.3-1.78,7.63,7.63,0,0,0-3.15-.61h-6.65v-4.8h6.65a14.15,14.15,0,0,1,5.45,1,12.37,12.37,0,0,1,4.31,2.88,12.82,12.82,0,0,1,2.79,4.49,15.86,15.86,0,0,1,1,5.78v1.4a16,16,0,0,1-1,5.78,12.82,12.82,0,0,1-2.79,4.49,12.46,12.46,0,0,1-4.31,2.88A14.8,14.8,0,0,1,153.31,131.32Zm-3-29.72v29.72h-6.12V101.6ZM187.83,126V109.24h5.88v22.08h-5.54Zm.65-4.53,1.74,0a15.72,15.72,0,0,1-.51,4.1,10.09,10.09,0,0,1-1.54,3.27A7.13,7.13,0,0,1,185.6,131a8.29,8.29,0,0,1-3.65.75,9.5,9.5,0,0,1-3-.44,6.24,6.24,0,0,1-2.33-1.45,7.11,7.11,0,0,1-1.51-2.55,12,12,0,0,1-.53-3.78V109.24h5.88v14.3a4.94,4.94,0,0,0,.23,1.65,2.92,2.92,0,0,0,.67,1.11,2.46,2.46,0,0,0,1,.61,4.44,4.44,0,0,0,1.3.18,4.88,4.88,0,0,0,2.86-.73,3.85,3.85,0,0,0,1.49-2A8.62,8.62,0,0,0,188.48,121.5ZM202,100h5.87v26.29l-.59,5.06H202Zm19.85,20.08v.43a17.82,17.82,0,0,1-.53,4.53,10.31,10.31,0,0,1-1.59,3.57,7.72,7.72,0,0,1-2.69,2.33,8.23,8.23,0,0,1-3.76.81,6.73,6.73,0,0,1-6-3.12,12.92,12.92,0,0,1-1.61-3.49,27,27,0,0,1-.92-4.36v-.94a26.91,26.91,0,0,1,.92-4.37,13.06,13.06,0,0,1,1.61-3.49,7.25,7.25,0,0,1,2.47-2.31,7.09,7.09,0,0,1,3.47-.81,8.25,8.25,0,0,1,3.8.83,7.27,7.27,0,0,1,2.69,2.33,10.12,10.12,0,0,1,1.59,3.55A17.66,17.66,0,0,1,221.81,120.05Zm-5.88.43v-.43a14.5,14.5,0,0,0-.2-2.53,6.73,6.73,0,0,0-.65-2.1,3.63,3.63,0,0,0-1.29-1.45,3.68,3.68,0,0,0-2.06-.53,4.66,4.66,0,0,0-2,.41A3.76,3.76,0,0,0,208.3,115a5.16,5.16,0,0,0-.79,1.76,10.37,10.37,0,0,0-.33,2.2v2.67a9.1,9.1,0,0,0,.53,2.86,4.37,4.37,0,0,0,1.47,1.94,4.48,4.48,0,0,0,2.59.69,3.9,3.9,0,0,0,2.06-.49,3.26,3.26,0,0,0,1.27-1.38,6.71,6.71,0,0,0,.65-2.11A18.2,18.2,0,0,0,215.93,120.48Zm25.22,5.86V116.5a4.38,4.38,0,0,0-.35-1.82,2.62,2.62,0,0,0-1.08-1.2,3.66,3.66,0,0,0-1.86-.43,3.83,3.83,0,0,0-1.69.35,2.49,2.49,0,0,0-1.11,1,2.72,2.72,0,0,0-.38,1.45H228.8a5.86,5.86,0,0,1,.65-2.68,6.75,6.75,0,0,1,1.9-2.22,9.53,9.53,0,0,1,3-1.53,12.72,12.72,0,0,1,3.88-.55,11.57,11.57,0,0,1,4.57.85,7,7,0,0,1,3.14,2.58,7.41,7.41,0,0,1,1.16,4.28V126a16.16,16.16,0,0,0,.23,3,8.1,8.1,0,0,0,.65,2v.35H242a8.77,8.77,0,0,1-.65-2.25A17.91,17.91,0,0,1,241.15,126.34Zm.77-8.47,0,3.33h-3.28a6.74,6.74,0,0,0-2,.26,3.78,3.78,0,0,0-1.41.75,3,3,0,0,0-.82,1.11,3.85,3.85,0,0,0-.24,1.38,2.73,2.73,0,0,0,.34,1.37,2.46,2.46,0,0,0,1,.94,3.38,3.38,0,0,0,1.53.33,4.81,4.81,0,0,0,2.31-.53,4.25,4.25,0,0,0,1.51-1.31,2.68,2.68,0,0,0,.57-1.47l1.55,2.49a9,9,0,0,1-.9,1.74,8.06,8.06,0,0,1-1.4,1.69,7.13,7.13,0,0,1-2.07,1.29,7.66,7.66,0,0,1-2.85.48,8.59,8.59,0,0,1-3.82-.83,6.91,6.91,0,0,1-2.69-2.35,6.2,6.2,0,0,1-1-3.43,7.07,7.07,0,0,1,.65-3.08,6,6,0,0,1,1.92-2.26,8.88,8.88,0,0,1,3.2-1.41,18,18,0,0,1,4.45-.49Zm19.64-8.63v22.08h-5.9V109.24Zm-6.27-5.76a2.77,2.77,0,0,1,.9-2.12,3.85,3.85,0,0,1,4.8,0,2.9,2.9,0,0,1,0,4.24,3.85,3.85,0,0,1-4.8,0A2.75,2.75,0,0,1,255.29,103.48Z" transform="translate(-87.58 -25.73)"/><path class="cls-1" d="M408.45,197v8.45a7.78,7.78,0,0,1-1.54,1.31,10.34,10.34,0,0,1-2.68,1.18,13.56,13.56,0,0,1-4,.5,10.16,10.16,0,0,1-3.77-.67,8.16,8.16,0,0,1-2.93-2,9,9,0,0,1-1.87-3.22,13.44,13.44,0,0,1-.66-4.38v-1.33a14,14,0,0,1,.63-4.38,9.13,9.13,0,0,1,1.83-3.24,7.79,7.79,0,0,1,2.83-2,9.3,9.3,0,0,1,3.64-.69,10.2,10.2,0,0,1,4.58.91,6.45,6.45,0,0,1,2.72,2.49,8.78,8.78,0,0,1,1.17,3.64h-4.26a5.26,5.26,0,0,0-.62-1.89,3.1,3.1,0,0,0-1.3-1.26,4.45,4.45,0,0,0-2.17-.46,4.08,4.08,0,0,0-2,.46,3.8,3.8,0,0,0-1.44,1.3,6.66,6.66,0,0,0-.89,2.14,12.4,12.4,0,0,0-.31,3v1.36a12.54,12.54,0,0,0,.32,3,6.35,6.35,0,0,0,1,2.15,4.16,4.16,0,0,0,1.58,1.31,5.11,5.11,0,0,0,2.18.44,7,7,0,0,0,1.73-.18,4.38,4.38,0,0,0,1.13-.43,3.42,3.42,0,0,0,.67-.49v-3.78h-4V197Zm13.27,11.44a8.88,8.88,0,0,1-3.31-.58,7.11,7.11,0,0,1-4-4.1,8.3,8.3,0,0,1-.54-3v-.59a10.09,10.09,0,0,1,.51-3.29,7.77,7.77,0,0,1,1.46-2.6,6.5,6.5,0,0,1,2.35-1.68,7.69,7.69,0,0,1,3.1-.6,7.56,7.56,0,0,1,3,.55,5.73,5.73,0,0,1,2.18,1.59,6.67,6.67,0,0,1,1.35,2.46,10.39,10.39,0,0,1,.46,3.16v1.76h-12.6v-2.81h8.45v-.33a3.72,3.72,0,0,0-.32-1.56,2.57,2.57,0,0,0-.94-1.12,2.94,2.94,0,0,0-1.61-.41,2.75,2.75,0,0,0-1.44.37,2.91,2.91,0,0,0-1,1,5.5,5.5,0,0,0-.55,1.56,9.6,9.6,0,0,0-.18,1.93v.59a5.73,5.73,0,0,0,.26,1.75,4.42,4.42,0,0,0,.78,1.4,3.44,3.44,0,0,0,1.23.9,4,4,0,0,0,1.66.33,5.16,5.16,0,0,0,2.12-.44,4.67,4.67,0,0,0,1.71-1.36l2.05,2.22a6.09,6.09,0,0,1-1.36,1.38,7.1,7.1,0,0,1-2.05,1.08A8.27,8.27,0,0,1,421.72,208.43Zm10.93-8.05v-.31a10,10,0,0,1,.5-3.21,7.39,7.39,0,0,1,1.45-2.56,6.47,6.47,0,0,1,2.35-1.69,7.79,7.79,0,0,1,3.19-.61,8,8,0,0,1,3.21.61,6.42,6.42,0,0,1,2.36,1.69,7.26,7.26,0,0,1,1.46,2.56,10,10,0,0,1,.5,3.21v.31a10,10,0,0,1-.5,3.2,7.48,7.48,0,0,1-1.46,2.57,6.56,6.56,0,0,1-2.35,1.68,8,8,0,0,1-3.19.6,8.13,8.13,0,0,1-3.21-.6,6.69,6.69,0,0,1-2.36-1.68,7.63,7.63,0,0,1-1.45-2.57A10,10,0,0,1,432.65,200.38Zm4.22-.31v.31a9.17,9.17,0,0,0,.18,1.86,5,5,0,0,0,.56,1.52,2.82,2.82,0,0,0,1,1,3.05,3.05,0,0,0,1.54.37,3,3,0,0,0,1.51-.37,2.72,2.72,0,0,0,1-1,5.26,5.26,0,0,0,.56-1.52,9.16,9.16,0,0,0,.19-1.86v-.31a8.76,8.76,0,0,0-.19-1.82,4.76,4.76,0,0,0-.58-1.52,2.86,2.86,0,0,0-1-1.06,3.23,3.23,0,0,0-3,0,3,3,0,0,0-1,1.06,5,5,0,0,0-.56,1.52A8.78,8.78,0,0,0,436.87,200.07Zm20.31-4.32v12.39H453V192.29h4Zm4.78-3.56-.08,3.91c-.2,0-.45,0-.74-.07a7.78,7.78,0,0,0-.78-.05,4.51,4.51,0,0,0-1.55.24,2.69,2.69,0,0,0-1.09.66,2.77,2.77,0,0,0-.64,1.06,5.16,5.16,0,0,0-.24,1.44l-.85-.26a12.45,12.45,0,0,1,.31-2.83,7.64,7.64,0,0,1,.9-2.27,4.47,4.47,0,0,1,1.46-1.5,3.75,3.75,0,0,1,2-.52,4.56,4.56,0,0,1,.72.06A2.7,2.7,0,0,1,462,192.19Zm14.43.1h3.82v15.32a6.72,6.72,0,0,1-1,3.68,6.06,6.06,0,0,1-2.67,2.3,9.76,9.76,0,0,1-6.09.53,8.48,8.48,0,0,1-2.11-.82,5.6,5.6,0,0,1-1.67-1.41l1.86-2.49a5.14,5.14,0,0,0,1.7,1.32,4.71,4.71,0,0,0,2.14.48,4.08,4.08,0,0,0,1.93-.42,2.8,2.8,0,0,0,1.21-1.22,4,4,0,0,0,.43-1.92V196Zm-10.66,8.12v-.31a11.36,11.36,0,0,1,.44-3.3,7.87,7.87,0,0,1,1.27-2.56,5.87,5.87,0,0,1,2-1.66,6,6,0,0,1,2.68-.58,5.44,5.44,0,0,1,2.65.58,4.77,4.77,0,0,1,1.76,1.67,8.64,8.64,0,0,1,1.07,2.54,23.91,23.91,0,0,1,.62,3.18v.67a19.67,19.67,0,0,1-.66,3.08,9.86,9.86,0,0,1-1.16,2.49,5.19,5.19,0,0,1-1.79,1.64,5.1,5.1,0,0,1-2.52.58,5.8,5.8,0,0,1-2.65-.6,6,6,0,0,1-2-1.68,8.14,8.14,0,0,1-1.28-2.55A10.84,10.84,0,0,1,465.73,200.41Zm4.21-.31v.31a8.86,8.86,0,0,0,.19,1.83,5.34,5.34,0,0,0,.59,1.51,3.24,3.24,0,0,0,1,1,2.94,2.94,0,0,0,1.45.35,3.32,3.32,0,0,0,1.89-.49,3,3,0,0,0,1.1-1.36,5.71,5.71,0,0,0,.42-2v-1.92a6.3,6.3,0,0,0-.24-1.65,4.12,4.12,0,0,0-.62-1.28,2.67,2.67,0,0,0-1-.82,3.62,3.62,0,0,0-1.5-.29,2.64,2.64,0,0,0-1.45.38,3,3,0,0,0-1,1,5.36,5.36,0,0,0-.6,1.52A8,8,0,0,0,469.94,200.1Zm20.71-7.81v15.85h-4.24V192.29Zm-4.5-4.13a2,2,0,0,1,.64-1.52,2.45,2.45,0,0,1,1.73-.61,2.42,2.42,0,0,1,1.72.61,2.08,2.08,0,0,1,0,3,2.42,2.42,0,0,1-1.72.6,2.44,2.44,0,0,1-1.73-.6A2,2,0,0,1,486.15,188.16Zm19.24,16.41v-7.06a3.06,3.06,0,0,0-.25-1.31,1.86,1.86,0,0,0-.78-.86A2.49,2.49,0,0,0,503,195a2.74,2.74,0,0,0-1.22.25,1.71,1.71,0,0,0-.79.69,2,2,0,0,0-.28,1h-4.21a4.12,4.12,0,0,1,.46-1.92,4.82,4.82,0,0,1,1.37-1.6,6.75,6.75,0,0,1,2.12-1.1,9.29,9.29,0,0,1,2.78-.39,8.32,8.32,0,0,1,3.29.61,5.06,5.06,0,0,1,2.25,1.85,5.31,5.31,0,0,1,.84,3.07v6.79a11.46,11.46,0,0,0,.16,2.14,5.22,5.22,0,0,0,.47,1.43v.25H506a6.44,6.44,0,0,1-.47-1.61A14.47,14.47,0,0,1,505.39,204.57Zm.56-6.08,0,2.38h-2.35a5.15,5.15,0,0,0-1.45.19,2.77,2.77,0,0,0-1,.55,2.06,2.06,0,0,0-.58.79,2.64,2.64,0,0,0-.18,1,2,2,0,0,0,.25,1,1.87,1.87,0,0,0,.72.67,2.38,2.38,0,0,0,1.1.23,3.33,3.33,0,0,0,1.65-.38,3,3,0,0,0,1.09-.93,2,2,0,0,0,.41-1.06l1.11,1.79a7,7,0,0,1-.64,1.24,6,6,0,0,1-1,1.22,5.23,5.23,0,0,1-1.48.92,5.33,5.33,0,0,1-2,.35,6.16,6.16,0,0,1-2.74-.6,5,5,0,0,1-1.94-1.68,4.44,4.44,0,0,1-.7-2.46,5.1,5.1,0,0,1,.47-2.22,4.28,4.28,0,0,1,1.38-1.62,6.32,6.32,0,0,1,2.3-1,12.65,12.65,0,0,1,3.19-.35Z" transform="translate(-87.58 -25.73)"/><path class="cls-1" d="M180.75,184.08v3.1H161.3v-2.72L171,173.63a37.91,37.91,0,0,0,2.77-3.39,10.62,10.62,0,0,0,1.39-2.51,6.71,6.71,0,0,0,.41-2.29,5.65,5.65,0,0,0-.61-2.65,4.65,4.65,0,0,0-1.76-1.92,5.31,5.31,0,0,0-2.81-.71,6.56,6.56,0,0,0-3.31.77,4.81,4.81,0,0,0-2,2.13,7.28,7.28,0,0,0-.65,3.14h-3.78a9.72,9.72,0,0,1,1.1-4.59,8.2,8.2,0,0,1,3.27-3.31,12.07,12.07,0,0,1,10.14-.24,6.94,6.94,0,0,1,3.06,2.77,7.75,7.75,0,0,1,1.09,4.16,8.35,8.35,0,0,1-.45,2.66,13.55,13.55,0,0,1-1.21,2.65,19.37,19.37,0,0,1-1.77,2.61c-.67.86-1.38,1.7-2.15,2.53l-7.95,8.64Zm4.51,1.1a2.32,2.32,0,0,1,.59-1.61,2.27,2.27,0,0,1,1.76-.68,2.17,2.17,0,0,1,1.73.68,2.37,2.37,0,0,1,0,3.2,2.19,2.19,0,0,1-1.73.65,2.14,2.14,0,0,1-2.35-2.24ZM200.59,173l-3-.78,1.49-14.8H214.3V161h-12l-.9,8.09a10.8,10.8,0,0,1,2.07-.88,9.42,9.42,0,0,1,2.89-.41,9.25,9.25,0,0,1,3.7.71,7.62,7.62,0,0,1,2.77,2,8.91,8.91,0,0,1,1.78,3.15,12.84,12.84,0,0,1,.61,4.1,12.67,12.67,0,0,1-.59,3.94,8.76,8.76,0,0,1-1.74,3.14,7.7,7.7,0,0,1-2.93,2.06,10.68,10.68,0,0,1-4.15.74,11.84,11.84,0,0,1-3.4-.49,8.66,8.66,0,0,1-2.86-1.53,8.39,8.39,0,0,1-2-2.58,10.08,10.08,0,0,1-1-3.63h3.59a7,7,0,0,0,1,2.82,4.77,4.77,0,0,0,1.92,1.73,6.44,6.44,0,0,0,2.79.57,5.63,5.63,0,0,0,2.39-.47,4.83,4.83,0,0,0,1.76-1.34,6.24,6.24,0,0,0,1.08-2.12,9.39,9.39,0,0,0,.38-2.8,8.4,8.4,0,0,0-.38-2.61,5.82,5.82,0,0,0-1.17-2.1,5,5,0,0,0-1.85-1.39,6,6,0,0,0-2.53-.51,6.4,6.4,0,0,0-2.88.51A10.74,10.74,0,0,0,200.59,173Zm21-15.58h3.81l9.74,24.23,9.71-24.23h3.84l-12.08,29.72h-3Zm-1.25,0h3.37l.55,18.13v11.59H220.3Zm26.21,0h3.36v29.72H246V175.59Z" transform="translate(-87.58 -25.73)"/><path class="cls-1" d="M432.59,246v2.23h-14v-2l7-7.78a29.09,29.09,0,0,0,2-2.43,8,8,0,0,0,1-1.8,4.93,4.93,0,0,0,.29-1.64,4,4,0,0,0-.44-1.91,3.34,3.34,0,0,0-1.26-1.38,3.79,3.79,0,0,0-2-.51,4.62,4.62,0,0,0-2.37.56,3.4,3.4,0,0,0-1.41,1.52,5.25,5.25,0,0,0-.47,2.26h-2.71a7.05,7.05,0,0,1,.79-3.3,5.83,5.83,0,0,1,2.35-2.37,7.5,7.5,0,0,1,3.82-.89,7.66,7.66,0,0,1,3.46.71,5.09,5.09,0,0,1,2.2,2,5.65,5.65,0,0,1,.77,3,6.17,6.17,0,0,1-.32,1.91,10,10,0,0,1-.86,1.9,15.63,15.63,0,0,1-1.28,1.88c-.48.61-1,1.22-1.54,1.81L421.9,246Zm3.24.79a1.65,1.65,0,0,1,.43-1.16,1.61,1.61,0,0,1,1.26-.48,1.57,1.57,0,0,1,1.24.48,1.66,1.66,0,0,1,.44,1.16,1.61,1.61,0,0,1-.44,1.14,1.56,1.56,0,0,1-1.24.47,1.55,1.55,0,0,1-1.69-1.61Zm11-8.71-2.17-.56,1.07-10.62h10.95v2.5H448l-.64,5.8a8.52,8.52,0,0,1,1.48-.63,6.92,6.92,0,0,1,2.08-.29,6.59,6.59,0,0,1,2.65.51,5.51,5.51,0,0,1,2,1.44,6.41,6.41,0,0,1,1.28,2.26,9.31,9.31,0,0,1,.44,2.94,9.08,9.08,0,0,1-.43,2.83,6.32,6.32,0,0,1-1.24,2.25,5.55,5.55,0,0,1-2.11,1.48,7.7,7.7,0,0,1-3,.53,8.47,8.47,0,0,1-2.44-.35,6.24,6.24,0,0,1-2.05-1.1,5.85,5.85,0,0,1-1.47-1.85,7.46,7.46,0,0,1-.7-2.6h2.58a5,5,0,0,0,.7,2,3.43,3.43,0,0,0,1.38,1.24,4.5,4.5,0,0,0,2,.41,4.22,4.22,0,0,0,1.72-.33,3.62,3.62,0,0,0,1.26-1,4.27,4.27,0,0,0,.77-1.52,6.64,6.64,0,0,0,.28-2,6,6,0,0,0-.28-1.88,4.14,4.14,0,0,0-.83-1.5,3.61,3.61,0,0,0-1.34-1,4.15,4.15,0,0,0-1.81-.37,4.53,4.53,0,0,0-2.07.37A7.74,7.74,0,0,0,446.83,238.09Zm15.05-11.18h2.74l7,17.39,7-17.39h2.75l-8.67,21.33h-2.14Zm-.9,0h2.42l.39,13v8.32H461Zm18.81,0h2.42v21.33H479.4v-8.32Z" transform="translate(-87.58 -25.73)"/><path class="cls-2" d="M203.58,257.73a116,116,0,1,1,116-116A116.15,116.15,0,0,1,203.58,257.73Zm0-211.5a95.51,95.51,0,1,0,95.5,95.5A95.65,95.65,0,0,0,203.58,46.23Z" transform="translate(-87.58 -25.73)"/><path class="cls-3" d="M360.49,106.44a18.07,18.07,0,1,1,18.07-18.07A18.1,18.1,0,0,1,360.49,106.44Zm0-32.95a14.88,14.88,0,1,0,14.88,14.88A14.9,14.9,0,0,0,360.49,73.49Z" transform="translate(-87.58 -25.73)"/><path class="cls-4" d="M319.08,270.61a9.89,9.89,0,1,1,9.89-9.89A9.9,9.9,0,0,1,319.08,270.61Zm0-18a8.14,8.14,0,1,0,8.14,8.14A8.16,8.16,0,0,0,319.08,252.58Z" transform="translate(-87.58 -25.73)"/><path class="cls-5" d="M447.35,316.24c-58.16,0-105.5-46.45-105.5-103.5s47.34-103.5,105.5-103.5,105.5,46.44,105.5,103.5S505.5,316.24,447.35,316.24Zm0-188.72c-47.87,0-86.86,38.26-86.86,85.22s39,85.21,86.86,85.21,86.86-38.25,86.86-85.21S495.21,127.52,447.35,127.52Z" transform="translate(-87.58 -25.73)"/><circle class="cls-6" cx="471.05" cy="105.17" r="6.11"/></svg>